<svg width="300" height="55" viewBox="0 0 300 55" fill="none" xmlns="http://www.w3.org/2000/svg">
<path d="M243.583 35.1823V8.1628H250.614L261.668 30.0872H258.934L270.124 8.17419H277.163L277.202 35.1937H271.349L271.311 17.1678H272.427L262.235 35.1823H258.134L248.126 17.1564H249.436V35.1823H243.583Z" fill="#661B18"/>
<path fill-rule="evenodd" clip-rule="evenodd" d="M243.285 35.4801V7.86497H250.783L260.287 27.2152L269.954 7.87636H277.461L277.5 35.4915H271.052L271.019 20.1099L262.405 35.4801H257.966L249.733 20.3668V35.4801H243.285ZM249.436 19.3054L258.134 35.1823H262.235L271.315 19.0331L271.349 35.1937H277.202L277.163 8.17419H270.124L260.289 27.7964L250.614 8.1628H243.583V35.1823H249.436V19.3054Z" fill="#661B18"/>
<path d="M214.792 35.1937C212.662 35.1937 210.685 34.8463 208.863 34.1515C207.066 33.4567 205.5 32.4789 204.165 31.218C202.856 29.957 201.829 28.4774 201.085 26.779C200.366 25.0807 200.007 23.2279 200.007 21.2207C200.007 19.2136 200.366 17.3608 201.085 15.6624C201.829 13.9641 202.869 12.4845 204.204 11.2235C205.538 9.96264 207.104 8.98478 208.901 8.29C210.698 7.59521 212.649 7.24782 214.753 7.24782C216.884 7.24782 218.835 7.59521 220.606 8.29C222.403 8.98478 223.956 9.96264 225.265 11.2235C226.599 12.4845 227.639 13.9641 228.383 15.6624C229.128 17.3351 229.5 19.1878 229.5 21.2207C229.5 23.2279 229.128 25.0935 228.383 26.8176C227.639 28.516 226.599 29.9956 225.265 31.2566C223.956 32.4917 222.403 33.4567 220.606 34.1515C218.835 34.8463 216.897 35.1937 214.792 35.1937ZM214.753 29.867C215.96 29.867 217.064 29.6611 218.065 29.2494C219.091 28.8377 219.99 28.2458 220.76 27.4738C221.53 26.7018 222.12 25.7883 222.531 24.7333C222.967 23.6782 223.186 22.5074 223.186 21.2207C223.186 19.9341 222.967 18.7633 222.531 17.7082C222.12 16.6532 221.53 15.7397 220.76 14.9677C220.016 14.1957 219.13 13.6038 218.103 13.1921C217.076 12.7804 215.96 12.5745 214.753 12.5745C213.547 12.5745 212.43 12.7804 211.404 13.1921C210.403 13.6038 209.517 14.1957 208.747 14.9677C207.977 15.7397 207.374 16.6532 206.937 17.7082C206.527 18.7633 206.321 19.9341 206.321 21.2207C206.321 22.4816 206.527 23.6525 206.937 24.7333C207.374 25.7883 207.964 26.7018 208.709 27.4738C209.479 28.2458 210.377 28.8377 211.404 29.2494C212.43 29.6611 213.547 29.867 214.753 29.867Z" fill="#661B18"/>
<path fill-rule="evenodd" clip-rule="evenodd" d="M208.756 34.4298L208.755 34.4293C206.924 33.7212 205.325 32.7232 203.961 31.4345L203.959 31.4325C202.621 30.144 201.572 28.6319 200.812 26.8986L200.811 26.8951C200.075 25.1569 199.709 23.2642 199.709 21.2207C199.709 19.1773 200.075 17.2846 200.811 15.5464L200.812 15.5429C201.572 13.8083 202.635 12.2956 203.999 11.007C205.363 9.71831 206.963 8.72024 208.794 8.01221C210.628 7.303 212.615 6.94999 214.753 6.94999C216.917 6.94999 218.905 7.30276 220.714 8.01252C222.545 8.72053 224.131 9.71871 225.47 11.0081C226.834 12.2963 227.896 13.8084 228.656 15.5422C229.419 17.2567 229.798 19.1511 229.798 21.2207C229.798 23.2657 229.418 25.1718 228.657 26.9357L228.656 26.9372C227.896 28.6718 226.833 30.1845 225.469 31.4731C224.13 32.7363 222.544 33.7212 220.714 34.4289C218.905 35.1385 216.93 35.4915 214.792 35.4915C212.629 35.4915 210.616 35.1386 208.756 34.4298ZM220.606 34.1515C222.403 33.4567 223.956 32.4917 225.265 31.2566C226.599 29.9956 227.639 28.516 228.383 26.8176C229.128 25.0935 229.5 23.2279 229.5 21.2207C229.5 19.1878 229.128 17.3351 228.383 15.6624C227.639 13.9641 226.599 12.4845 225.265 11.2235C223.956 9.96264 222.403 8.98478 220.606 8.29C218.835 7.59521 216.884 7.24782 214.753 7.24782C212.649 7.24782 210.698 7.59521 208.901 8.29C207.104 8.98478 205.538 9.96264 204.204 11.2235C202.869 12.4845 201.829 13.9641 201.085 15.6624C200.366 17.3608 200.007 19.2136 200.007 21.2207C200.007 23.2279 200.366 25.0807 201.085 26.779C201.829 28.4774 202.856 29.957 204.165 31.218C205.5 32.4789 207.066 33.4567 208.863 34.1515C210.685 34.8463 212.662 35.1937 214.792 35.1937C216.897 35.1937 218.835 34.8463 220.606 34.1515ZM217.951 28.9739L217.954 28.9729C218.944 28.576 219.808 28.0065 220.549 27.2635C221.289 26.5217 221.857 25.6434 222.253 24.6252L222.256 24.6194C222.675 23.6048 222.888 22.4733 222.888 21.2207C222.888 19.9682 222.675 18.8367 222.256 17.822L222.253 17.8163C221.857 16.7981 221.289 15.9197 220.549 15.178L220.545 15.1744C219.831 14.4337 218.981 13.8651 217.992 13.4685C217.004 13.0722 215.925 12.8724 214.753 12.8724C213.582 12.8724 212.504 13.072 211.516 13.4681C210.552 13.8646 209.7 14.4341 208.958 15.178C208.217 15.9204 207.636 16.7997 207.214 17.8191C206.819 18.8346 206.619 19.9672 206.619 21.2207C206.619 22.4472 206.819 23.5805 207.214 24.6234C207.637 25.6437 208.206 26.5232 208.921 27.2653C209.662 28.0074 210.526 28.5764 211.515 28.973C212.503 29.3693 213.582 29.5691 214.753 29.5691C215.925 29.5691 216.99 29.3693 217.951 28.9739ZM206.937 24.7333C206.527 23.6525 206.321 22.4816 206.321 21.2207C206.321 19.9341 206.527 18.7633 206.937 17.7082C207.374 16.6532 207.977 15.7397 208.747 14.9677C209.517 14.1957 210.403 13.6038 211.404 13.1921C212.43 12.7804 213.547 12.5745 214.753 12.5745C215.96 12.5745 217.076 12.7804 218.103 13.1921C219.13 13.6038 220.016 14.1957 220.76 14.9677C221.53 15.7397 222.12 16.6532 222.531 17.7082C222.967 18.7633 223.186 19.9341 223.186 21.2207C223.186 22.5074 222.967 23.6782 222.531 24.7333C222.12 25.7883 221.53 26.7018 220.76 27.4738C219.99 28.2458 219.091 28.8377 218.065 29.2494C217.064 29.6611 215.96 29.867 214.753 29.867C213.547 29.867 212.43 29.6611 211.404 29.2494C210.377 28.8377 209.479 28.2458 208.709 27.4738C207.964 26.7018 207.374 25.7883 206.937 24.7333Z" fill="#661B18"/>
<path d="M163.5 35.1938V8.17437L177.963 8.17337C180.376 8.17337 182.455 8.57223 184.2 9.36994C185.946 10.1419 187.293 11.2613 188.243 12.7281C189.193 14.1949 189.668 15.9447 189.668 17.9776C189.668 19.9847 189.193 21.7217 188.243 23.1885C187.293 24.6552 185.946 25.7875 184.2 26.5852C182.455 27.3572 180.376 27.7432 177.963 27.7432L166.965 27.7442L169.737 24.9264V35.1938H163.5ZM169.737 25.6212L166.965 22.6491L177.616 22.6481C179.541 22.6481 180.979 22.2364 181.929 21.4129C182.878 20.5895 183.353 19.4443 183.353 17.9776C183.353 16.4851 182.878 15.3271 181.929 14.5036C180.979 13.6802 179.541 13.2685 177.616 13.2685L166.965 13.2695L169.737 10.2973V25.6212Z" fill="#661B18"/>
<path fill-rule="evenodd" clip-rule="evenodd" d="M163.202 35.4917V7.87654L177.963 7.87554C180.407 7.87554 182.53 8.27938 184.322 9.0983C186.115 9.89146 187.509 11.0468 188.493 12.5662C189.479 14.0887 189.965 15.8968 189.965 17.9776C189.965 20.0334 189.478 21.8285 188.493 23.3503C187.509 24.8694 186.116 26.0372 184.324 26.8561L184.321 26.8576C182.529 27.6502 180.407 28.041 177.963 28.041L170.035 28.042V35.4917H163.202ZM169.737 27.7442L177.963 27.7432C180.376 27.7432 182.455 27.3572 184.2 26.5852C185.946 25.7875 187.293 24.6552 188.243 23.1885C189.193 21.7217 189.668 19.9847 189.668 17.9776C189.668 15.9447 189.193 14.1949 188.243 12.7281C187.293 11.2613 185.946 10.1419 184.2 9.36994C182.455 8.57223 180.376 8.17337 177.963 8.17337L163.5 8.17437V35.1938H169.737V27.7442ZM177.616 22.6481C179.541 22.6481 180.979 22.2364 181.929 21.4129C182.878 20.5895 183.353 19.4443 183.353 17.9776C183.353 16.4851 182.878 15.3271 181.929 14.5036C180.979 13.6802 179.541 13.2685 177.616 13.2685L169.737 13.2695V22.6491L177.616 22.6481ZM170.035 22.3512L177.616 22.3502C179.506 22.3502 180.86 21.945 181.733 21.1879C182.607 20.4307 183.055 19.3739 183.055 17.9776C183.055 16.5536 182.606 15.4849 181.733 14.7287C180.86 13.9716 179.506 13.5663 177.616 13.5663L170.035 13.5673V22.3512Z" fill="#661B18"/>
<path d="M132.535 19.0726L147.917 19.0593V23.9228L132.535 23.9361V19.0726ZM132.997 30.1892L150.073 30.1759V35.1938L126.798 35.2071V8.18761L149.573 8.17437V13.1923L132.997 13.2055V30.1892Z" fill="#661B18"/>
<path fill-rule="evenodd" clip-rule="evenodd" d="M132.997 19.0726L147.917 19.0593V23.9228L132.997 23.9361V30.1892L150.073 30.1759V35.1938L126.798 35.2071V8.18761L149.573 8.17437V13.1923L132.997 13.2055V19.0726ZM133.295 13.5033L149.871 13.4901V7.87654L126.5 7.88978V35.5049L150.371 35.4917V29.8781L133.295 29.8913V24.2339L148.215 24.2207V18.7615L133.295 18.7748V13.5033Z" fill="#661B18"/>
<path d="M85.446 35.2192C84.9838 35.2192 84.4244 35.2192 83.9472 35.2192C83.4701 35.2192 82.9145 35.2192 82.2978 35.2192V30.0832C82.6942 30.0832 83.4149 30.0832 83.8001 30.0832C84.853 30.0832 85.6747 29.6584 86.2654 28.8088C86.856 27.9335 87.0643 26.681 87.3211 25.0591C87.5365 22.9943 87.5365 21.4769 87.5365 19.1704V8.18761L113.702 8.18769V35.2192H107.539V11.8562L108.964 13.2851H92.5056L93.7768 11.779L93.5456 18.923C93.4686 21.5747 93.2888 23.9303 93.0064 25.9898C92.7239 28.0494 92.2873 29.8 91.6967 31.2417C91.106 32.6834 90.3952 33.374 89.368 34.1206C88.3408 34.8672 87.0125 35.2192 85.446 35.2192Z" fill="#661B18"/>
<path fill-rule="evenodd" clip-rule="evenodd" d="M82 35.517V29.7854H83.8001C84.7568 29.7854 85.486 29.4072 86.0197 28.6405C86.5636 27.8332 86.7661 26.6599 87.0257 25.0203C87.2385 22.9769 87.2387 21.4747 87.2387 19.1704V7.88978L114 7.88986V35.517H107.241V13.5829H94.0164L93.8433 18.9317C93.7661 21.5911 93.5857 23.9579 93.3014 26.0303C93.0166 28.107 92.575 29.8834 91.9723 31.3546C91.3549 32.8616 90.6008 33.5928 89.5431 34.3615C88.4509 35.1553 87.0554 35.517 85.446 35.517H82ZM93.728 13.2851H107.539V35.2192H113.702V8.18769L87.5365 8.18761V19.1704C87.5365 21.4769 87.5365 22.9943 87.3211 25.0591C87.0643 26.681 86.856 27.9335 86.2654 28.8088C85.6747 29.6584 84.853 30.0832 83.8001 30.0832H82.2978V35.2192H85.446C87.0125 35.2192 88.3408 34.8672 89.368 34.1206C90.3952 33.374 91.106 32.6834 91.6967 31.2417C92.2873 29.8 92.7239 28.0494 93.0064 25.9898C93.2888 23.9303 93.4686 21.5747 93.5456 18.923L93.728 13.2851Z" fill="#661B18"/>
<path d="M291.632 16.5001C290.477 16.5001 289.406 16.2916 288.421 15.8748C287.435 15.4579 286.573 14.8789 285.833 14.1378C285.094 13.3813 284.516 12.5089 284.101 11.5208C283.7 10.5326 283.5 9.4673 283.5 8.32476C283.5 7.18222 283.708 6.11688 284.124 5.12874C284.54 4.1406 285.117 3.27597 285.856 2.53487C286.596 1.77832 287.435 1.19162 288.421 0.774744C289.422 0.357872 290.13 0.149414 291.285 0.149414C292.44 0.149414 293.857 0.357872 294.843 0.774744C295.844 1.17618 296.753 1.74744 297.477 2.48855C298.216 3.22966 298.786 4.09428 299.186 5.08242C299.602 6.05512 299.81 7.12046 299.81 8.27844C299.81 9.43642 299.602 10.5172 299.186 11.5208C298.77 12.5089 298.185 13.3813 297.43 14.1378C296.691 14.8789 295.829 15.4579 294.843 15.8748C293.857 16.2916 292.787 16.5001 291.632 16.5001ZM293.457 12.7482L291.285 9.3901H294.173L296.345 12.7482H293.457ZM291.632 14.74C292.54 14.74 293.372 14.5778 294.127 14.2536C294.897 13.9139 295.567 13.4585 296.137 12.8872C296.706 12.3005 297.145 11.6134 297.453 10.826C297.777 10.0386 297.939 9.18938 297.939 8.27844C297.939 7.3675 297.785 6.52603 297.477 5.75405C297.168 4.96662 296.737 4.28728 296.183 3.71601C295.628 3.14474 294.966 2.70471 294.196 2.39591C293.441 2.07168 292.602 1.90956 291.678 1.90956C290.769 1.90956 289.93 2.07168 289.16 2.39591C288.39 2.72015 287.72 3.17562 287.15 3.76233C286.58 4.34903 286.141 5.02838 285.833 5.80037C285.525 6.57235 285.371 7.41382 285.371 8.32476C285.371 9.22026 285.525 10.0617 285.833 10.8492C286.141 11.6366 286.572 12.3236 287.127 12.9103C287.697 13.4816 288.367 13.9294 289.137 14.2536C289.907 14.5778 290.739 14.74 291.632 14.74ZM287.982 12.7482V3.90128H291.978C293.241 3.90128 294.219 4.19464 294.912 4.78135C295.621 5.35261 295.975 6.13232 295.975 7.12046C295.975 8.17036 295.621 8.97323 294.912 9.52905C294.219 10.0694 293.249 10.3396 292.001 10.3396H290.823V12.7482H287.982ZM290.823 8.3016H291.817C292.232 8.3016 292.556 8.20124 292.787 8.00052C293.033 7.78437 293.157 7.49101 293.157 7.12046C293.157 6.73447 293.033 6.44111 292.787 6.2404C292.556 6.03968 292.232 5.93932 291.817 5.93932H290.823V8.3016Z" fill="#661B18"/>
<path d="M259.233 54.7242V46.4444H261.132V51.8381L265.073 46.4444H266.866V54.7242H264.979V49.3423L261.038 54.7242H259.233Z" fill="#661B18"/>
<path fill-rule="evenodd" clip-rule="evenodd" d="M259.099 54.8579V46.3107H261.266V51.4287L265.005 46.3107H267V54.8579H264.845V49.751L261.106 54.8579H259.099ZM264.979 49.3423V54.7242H266.866V46.4444H265.073L261.132 51.8381V46.4444H259.233V54.7242H261.038L264.979 49.3423Z" fill="#661B18"/>
<path d="M252.455 46.4444H254.367V54.7242H252.455V46.4444ZM248.703 54.7242H246.792V46.4444H248.703V54.7242ZM252.597 51.3295H248.561V49.709H252.597V51.3295Z" fill="#661B18"/>
<path fill-rule="evenodd" clip-rule="evenodd" d="M252.321 46.3107H254.5V54.8579H252.321V51.4631H248.837V54.8579H246.658V46.3107H248.837V49.5754H252.321V46.3107ZM252.455 49.709H248.703V46.4444H246.792V54.7242H248.703V51.3295H252.455V54.7242H254.367V46.4444H252.455V49.709Z" fill="#661B18"/>
<path d="M234.532 54.7242L238.213 46.4444H240.101L243.794 54.7242H241.788L238.768 47.4143H239.523L236.491 54.7242H234.532ZM236.373 52.95L236.88 51.4951H241.128L241.647 52.95H236.373Z" fill="#661B18"/>
<path fill-rule="evenodd" clip-rule="evenodd" d="M234.326 54.8579L238.126 46.3107H240.188L244 54.8579H241.699L240.966 53.0836H237.316L236.58 54.8579H234.326ZM237.227 52.95H241.055L241.788 54.7242H243.794L240.101 46.4444H238.213L234.532 54.7242H236.491L237.227 52.95ZM239.145 48.3263L237.83 51.4951H240.454L239.145 48.3263ZM240.254 51.3614L239.144 48.6756L238.03 51.3614H240.254Z" fill="#661B18"/>
<path d="M223.839 54.7242V46.4444H231.366V54.7242H229.467V47.5681L229.903 48.0057H225.302L225.738 47.5681V54.7242H223.839Z" fill="#661B18"/>
<path fill-rule="evenodd" clip-rule="evenodd" d="M223.705 54.8579V46.3107H231.5V54.8579H229.333V48.1394H225.872V54.8579H223.705ZM225.738 48.0057H229.467V54.7242H231.366V46.4444H223.839V54.7242H225.738V48.0057Z" fill="#661B18"/>
<path d="M209.557 54.7242V46.4444H211.138L214.654 52.2876H213.816L217.273 46.4444H218.855L218.866 54.7242H217.073L217.061 49.2004H217.403L214.63 53.8489H213.781L210.949 49.2004H211.35V54.7242H209.557Z" fill="#661B18"/>
<path fill-rule="evenodd" clip-rule="evenodd" d="M209.423 54.8579V46.3107H211.214L214.231 51.3248L217.197 46.3107H218.988L219 54.8579H216.94L216.93 50.2552L214.706 53.9826H213.706L211.484 50.3352V54.8579H209.423ZM211.35 49.8589L213.781 53.8489H214.63L217.062 49.772L217.073 54.7242H218.866L218.855 46.4444H217.273L214.232 51.5856L211.138 46.4444H209.557V54.7242H211.35V49.8589Z" fill="#661B18"/>
<path d="M190.083 54.7242L187.511 50.7381L189.056 49.8036L192.254 54.7242H190.083ZM184.714 54.7242V46.4444H186.614V54.7242H184.714ZM186.059 51.3886V49.7918H188.938V51.3886H186.059ZM189.233 50.7972L187.475 50.5843L190.154 46.4444H192.171L189.233 50.7972Z" fill="#661B18"/>
<path fill-rule="evenodd" clip-rule="evenodd" d="M190.01 54.8579L187.858 51.5223H186.748V54.8579H184.581V46.3107H186.748V49.6582H187.915L190.081 46.3107H192.423L189.632 50.4448L192.5 54.8579H190.01ZM189.472 50.4434L192.171 46.4444H190.154L187.988 49.7918H186.614V46.4444H184.714V54.7242H186.614V51.3886H187.931L190.083 54.7242H192.254L189.472 50.4434Z" fill="#661B18"/>
<path d="M155.032 54.7242L158.713 46.4444H160.601L164.294 54.7242H162.288L159.268 47.4143H160.023L156.991 54.7242H155.032ZM156.873 52.95L157.38 51.4951H161.628L162.147 52.95H156.873Z" fill="#661B18"/>
<path fill-rule="evenodd" clip-rule="evenodd" d="M154.826 54.8579L158.626 46.3107H160.688L164.5 54.8579H162.199L161.466 53.0836H157.816L157.08 54.8579H154.826ZM157.727 52.95H161.555L162.288 54.7242H164.294L160.601 46.4444H158.713L155.032 54.7242H156.991L157.727 52.95ZM159.645 48.3263L158.33 51.4951H160.954L159.645 48.3263ZM160.754 51.3615L159.644 48.6756L158.53 51.3615H160.754Z" fill="#661B18"/>
<path d="M149.955 46.4443H151.866V54.7242H149.955V46.4443ZM146.203 54.7242H144.292V46.4443H146.203V54.7242ZM150.097 51.3295H146.061V49.709H150.097V51.3295Z" fill="#661B18"/>
<path fill-rule="evenodd" clip-rule="evenodd" d="M149.821 46.3107H152V54.8579H149.821V51.4631H146.337V54.8579H144.158V46.3107H146.337V49.5753H149.821V46.3107ZM149.955 49.709H146.203V46.4443H144.292V54.7242H146.203V51.3295H149.955V54.7242H151.866V46.4443H149.955V49.709Z" fill="#661B18"/>
<path d="M137.24 49.1649C138.239 49.1649 139.01 49.3896 139.552 49.8391C140.095 50.2807 140.367 50.947 140.367 51.8381C140.367 52.7844 140.064 53.502 139.458 53.9909C138.86 54.4798 138.03 54.7242 136.968 54.7242H133.24V46.4443H135.14V49.1649H137.24ZM136.862 53.3048C137.35 53.3048 137.735 53.1826 138.019 52.9381C138.302 52.6937 138.443 52.3388 138.443 51.8736C138.443 51.4162 138.302 51.089 138.019 50.8918C137.743 50.6868 137.358 50.5843 136.862 50.5843H135.14V53.3048H136.862Z" fill="#661B18"/>
<path fill-rule="evenodd" clip-rule="evenodd" d="M133.106 54.8579V46.3107H135.273V49.0312H137.24C138.257 49.0312 139.062 49.2598 139.637 49.7358C140.219 50.2094 140.5 50.919 140.5 51.8381C140.5 52.815 140.186 53.5748 139.542 54.0946C138.913 54.6091 138.049 54.8579 136.968 54.8579H133.106ZM139.458 53.9909C140.064 53.502 140.367 52.7844 140.367 51.8381C140.367 50.947 140.095 50.2807 139.552 49.8391C139.01 49.3896 138.239 49.1649 137.24 49.1649H135.14V46.4443H133.24V54.7242H136.968C138.03 54.7242 138.86 54.4798 139.458 53.9909ZM137.94 51.0003L137.939 50.999C137.695 50.8173 137.341 50.7179 136.862 50.7179H135.273V53.1712H136.862C137.328 53.1712 137.679 53.0548 137.931 52.837C138.178 52.6239 138.31 52.3102 138.31 51.8736C138.31 51.4443 138.178 51.1659 137.942 51.0015L137.94 51.0003ZM135.14 53.3048V50.5843H136.862C137.358 50.5843 137.743 50.6868 138.019 50.8918C138.302 51.089 138.443 51.4162 138.443 51.8736C138.443 52.3388 138.302 52.6937 138.019 52.9381C137.735 53.1826 137.35 53.3048 136.862 53.3048H135.14Z" fill="#661B18"/>
<path d="M121.223 54.7243C121.082 54.7243 120.91 54.7243 120.764 54.7243C120.618 54.7243 120.448 54.7243 120.259 54.7243V53.1511C120.38 53.1511 120.601 53.1511 120.719 53.1511C121.042 53.1511 121.293 53.021 121.474 52.7607C121.655 52.4926 121.719 52.109 121.798 51.6122C121.864 50.9797 121.864 50.5149 121.864 49.8084V46.4443L128.866 46.4443V54.7243H126.979V47.568L127.415 48.0057H123.386L123.775 47.5444L123.704 49.7327C123.681 50.5449 123.626 51.2664 123.539 51.8973C123.453 52.5281 123.319 53.0643 123.138 53.5059C122.957 53.9475 122.739 54.1591 122.425 54.3878C122.11 54.6164 121.703 54.7243 121.223 54.7243Z" fill="#661B18"/>
<path fill-rule="evenodd" clip-rule="evenodd" d="M120.125 54.8579V53.0174H120.719C120.998 53.0174 121.209 52.9082 121.364 52.6852C121.524 52.4476 121.585 52.0994 121.665 51.5948C121.73 50.9719 121.73 50.5139 121.73 49.8084V46.3107L129 46.3107V54.8579H126.845V48.1393H123.889L123.838 49.7365C123.814 50.5522 123.759 51.2788 123.671 51.9154C123.584 52.554 123.448 53.1018 123.262 53.5566C123.069 54.0275 122.831 54.2572 122.503 54.4959C122.159 54.7457 121.722 54.8579 121.223 54.8579H120.125ZM123.704 49.7327L123.76 48.0057H126.979V54.7243H128.866V46.4443L121.864 46.4443V49.8084C121.864 50.5149 121.864 50.9797 121.798 51.6122C121.719 52.109 121.655 52.4926 121.474 52.7607C121.293 53.021 121.042 53.1511 120.719 53.1511H120.259V54.7243H121.223C121.703 54.7243 122.11 54.6164 122.425 54.3878C122.739 54.1591 122.957 53.9475 123.138 53.5059C123.319 53.0643 123.453 52.5281 123.539 51.8973C123.626 51.2664 123.681 50.5449 123.704 49.7327Z" fill="#661B18"/>
<path d="M111.766 49.78H116.339V51.2704H111.766V49.78ZM111.907 53.1866H117V54.7243H110.008V46.4444H116.847V47.9821H111.907V53.1866Z" fill="#661B18"/>
<path fill-rule="evenodd" clip-rule="evenodd" d="M111.907 49.78H116.339V51.2704H111.907V53.1866H117V54.7243H110.008V46.4444H116.847V47.9821H111.907V49.78ZM112.041 48.1157H116.98V46.3108H109.874V54.858H117.134V53.053H112.041V51.4041H116.473V49.6464H112.041V48.1157Z" fill="#661B18"/>
<path d="M98.7438 54.7243V46.4444H105.41V47.9703H100.643V49.6736H102.932C103.931 49.6736 104.69 49.8825 105.21 50.3005C105.737 50.7184 106 51.3256 106 52.1221C106 52.9422 105.709 53.5809 105.127 54.0383C104.545 54.4956 103.723 54.7243 102.661 54.7243H98.7438ZM100.643 53.3049H102.555C103.043 53.3049 103.416 53.2103 103.676 53.021C103.935 52.8239 104.065 52.54 104.065 52.1694C104.065 51.4439 103.562 51.0812 102.555 51.0812H100.643V53.3049Z" fill="#661B18"/>
<path fill-rule="evenodd" clip-rule="evenodd" d="M98.6102 54.858V46.3108H105.544V48.1039H100.777V49.5399H102.932C103.947 49.5399 104.741 49.7517 105.293 50.196C105.858 50.6441 106.134 51.2934 106.134 52.1221C106.134 52.9781 105.828 53.6577 105.21 54.1434C104.596 54.6258 103.74 54.858 102.661 54.858H98.6102ZM100.643 49.6736V47.9703H105.41V46.4444H98.7438V54.7243H102.661C103.723 54.7243 104.545 54.4956 105.127 54.0383C105.709 53.5809 106 52.9422 106 52.1221C106 51.3256 105.737 50.7184 105.21 50.3005C104.69 49.8825 103.931 49.6736 102.932 49.6736H100.643ZM100.777 53.1713H102.555C103.027 53.1713 103.368 53.0793 103.596 52.9138C103.817 52.7457 103.931 52.5042 103.931 52.1694C103.931 51.8413 103.82 51.6134 103.609 51.4616C103.391 51.304 103.046 51.2148 102.555 51.2148H100.777V53.1713ZM100.643 53.3049V51.0812H102.555C103.562 51.0812 104.065 51.4439 104.065 52.1694C104.065 52.54 103.935 52.8239 103.676 53.021C103.416 53.2103 103.043 53.3049 102.555 53.3049H100.643Z" fill="#661B18"/>
<path d="M89.697 49.78H94.2058V51.2704H89.697V49.78ZM89.8386 53.1866H94.8665V54.7243H87.939V46.4444H94.7131V47.9821H89.8386V53.1866Z" fill="#661B18"/>
<path fill-rule="evenodd" clip-rule="evenodd" d="M89.8386 49.78H94.2058V51.2704H89.8386V53.1866H94.8665V54.7243H87.939V46.4444H94.7131V47.9821H89.8386V49.78ZM89.9723 48.1157H94.8468V46.3108H87.8054V54.858H95.0002V53.053H89.9723V51.4041H94.3394V49.6464H89.9723V48.1157Z" fill="#661B18"/>
<path d="M74.057 54.7243V46.4444H75.638L79.1541 52.2877H78.3164L81.7734 46.4444H83.3545L83.3663 54.7243H81.5729L81.5611 49.2004H81.9032L79.1305 53.849H78.281L75.4492 49.2004H75.8504V54.7243H74.057Z" fill="#661B18"/>
<path fill-rule="evenodd" clip-rule="evenodd" d="M73.9233 54.858V46.3108H75.7136L78.7307 51.3249L81.6972 46.3108H83.4879L83.5001 54.858H81.4395L81.4297 50.2553L79.2064 53.9827H78.2059L75.984 50.3353V54.858H73.9233ZM75.8504 49.859L78.281 53.849H79.1305L81.5623 49.772L81.5729 54.7243H83.3663L83.3545 46.4444H81.7734L78.7317 51.5857L75.638 46.4444H74.057V54.7243H75.8504V49.859Z" fill="#661B18"/>
<path fill-rule="evenodd" clip-rule="evenodd" d="M175 46.3251H170.05C168.092 46.3251 166.976 47.4306 166.976 49.2309C166.976 50.895 167.984 51.9302 169.426 52.0959L167.634 54.8663H169.924L171.477 52.1843H172.905V54.8663H175V46.3251ZM170.983 50.4308H172.905V48.0786H170.844C169.601 48.0786 169.071 48.2894 169.071 49.266C169.071 50.2072 169.681 50.4308 170.983 50.4308Z" fill="#661B18"/>
<path fill-rule="evenodd" clip-rule="evenodd" d="M278.5 46.3251H273.55C271.592 46.3251 270.476 47.4306 270.476 49.2309C270.476 50.895 271.484 51.9302 272.926 52.0959L271.134 54.8663H273.424L274.977 52.1843H276.405V54.8663H278.5V46.3251ZM274.483 50.4308H276.405V48.0786H274.344C273.101 48.0786 272.571 48.2894 272.571 49.266C272.571 50.2071 273.181 50.4308 274.483 50.4308Z" fill="#661B18"/>
<path fill-rule="evenodd" clip-rule="evenodd" d="M198.495 54.6719C199.07 54.8911 199.692 55 200.359 55C201.019 55 201.63 54.8911 202.189 54.6716C202.755 54.4528 203.246 54.1482 203.66 53.757C204.083 53.3582 204.411 52.89 204.647 52.3533C204.883 51.8071 205 51.2165 205 50.5845C205 49.945 204.883 49.3586 204.647 48.8272C204.411 48.2909 204.083 47.8229 203.661 47.4242C203.246 47.0251 202.755 46.7163 202.189 46.4974C201.629 46.2778 201.015 46.1689 200.348 46.1689C199.688 46.1689 199.073 46.2779 198.506 46.4973C197.94 46.7162 197.445 47.0249 197.023 47.4238C196.601 47.8226 196.272 48.2908 196.036 48.8275L196.036 48.8291C195.808 49.3675 195.695 49.9531 195.695 50.5845C195.695 51.2159 195.808 51.8015 196.036 52.3399L196.037 52.3414C196.271 52.8776 196.596 53.3456 197.01 53.7443L197.011 53.7452C197.433 54.1441 197.929 54.4531 198.495 54.6719ZM202.093 52.4063C201.87 52.6299 201.611 52.8012 201.312 52.9208L201.311 52.9212C201.022 53.04 200.702 53.1004 200.347 53.1004C199.993 53.1004 199.668 53.04 199.371 52.9208C199.073 52.8014 198.813 52.6303 198.59 52.4071C198.376 52.184 198.204 51.9193 198.077 51.6116C197.957 51.2974 197.897 50.9554 197.897 50.5845C197.897 50.2051 197.958 49.8634 198.076 49.5579C198.204 49.2505 198.379 48.9859 198.601 48.7626C198.825 48.5387 199.081 48.3674 199.371 48.248C199.669 48.1289 199.993 48.0685 200.347 48.0685C200.702 48.0685 201.027 48.1289 201.324 48.2482C201.622 48.3676 201.877 48.5385 202.092 48.761L202.093 48.7626C202.316 48.9856 202.487 49.2498 202.606 49.5566L202.607 49.5592C202.734 49.8644 202.798 50.2055 202.798 50.5845C202.798 50.9634 202.734 51.3046 202.607 51.6098L202.606 51.6124C202.487 51.9192 202.316 52.1833 202.093 52.4063Z" fill="#661B18"/>
<path d="M37.7376 7.7438H22.3867L0 54.8371H15.3509L37.7376 7.7438Z" fill="#004583"/>
<path d="M37.7376 15.8169L19.1886 54.8371H37.7376V15.8169Z" fill="#004583"/>
<path d="M40.936 7.74377H57.5661V54.8371H40.936V7.74377Z" fill="#BB2822"/>
<path d="M60.7642 7.74377H79.3132L61.4039 46.0463H60.7642V7.74377Z" fill="#BB2822"/>
</svg>
